<svg width="69" height="96" viewBox="0 0 69 96" fill="none" xmlns="http://www.w3.org/2000/svg">
<rect x="5.7854" width="58.0121" height="58.3291" rx="29.0061" fill="white"/>
<path d="M38.3976 88.4862C36.9455 91.5118 32.6374 91.5118 31.1853 88.4862L8.2352 40.6675C6.9608 38.0121 8.89606 34.9367 11.8414 34.9367L57.7415 34.9367C60.6868 34.9367 62.6221 38.0121 61.3477 40.6675L38.3976 88.4862Z" fill="white"/>
<g clip-path="url(#clip0_35_215)">
<path d="M58.8869 21.6863H63.9696L64.4954 19.1017H57.8937C56.4916 19.1017 55.3232 20.2765 55.3232 21.6863V28.3241C55.3232 29.7338 56.4916 30.9087 57.8937 30.9087H64.4954L63.9696 28.3241H58.8869C58.5948 28.3241 58.3611 28.0891 58.3611 27.7954V22.1562C58.3611 21.8625 58.5948 21.6276 58.8869 21.6276V21.6863ZM101.184 28.3828C100.892 28.3828 100.659 28.1478 100.659 27.8541V22.215C100.659 21.9213 100.892 21.6863 101.184 21.6863H106.267L106.793 19.1017H100.191C98.7891 19.1017 97.6207 20.2765 97.6207 21.6863V28.3241C97.6207 29.7338 98.7891 30.9087 100.191 30.9087H106.793L106.267 28.3241H101.184V28.3828ZM86.9295 19.1604H82.8399V13.9912H79.802V30.9087H86.9295C88.3316 30.9087 89.5 29.7338 89.5 28.3241V21.6863C89.5 20.2765 88.3316 19.1017 86.9295 19.1017V19.1604ZM86.4037 27.8541C86.4037 28.1478 86.17 28.3828 85.8779 28.3828H82.8399V21.745H85.8779C86.17 21.745 86.4037 21.98 86.4037 22.2737V27.9129V27.8541ZM74.1351 27.8541C74.1351 28.1478 73.9014 28.3828 73.6093 28.3828H70.5713C70.2792 28.3828 70.0455 28.1478 70.0455 27.8541V19.1604H67.0076V28.3828C67.0076 29.7926 68.176 30.9674 69.5781 30.9674H74.6609C76.063 30.9674 77.2314 29.7926 77.2314 28.3828V19.1604H74.1935V27.8541H74.1351ZM92.0122 19.1604H95.0501V30.9674H92.0122V19.1604ZM35.5181 10.9366L21.4968 17.9856V32.0835L35.5181 39.1324L49.5394 32.0835V17.9856L35.5181 10.9366ZM46.5014 30.2038L35.5181 35.7255L24.5348 30.2038V19.8653L35.5181 14.4024L46.0925 19.7478L38.9066 23.331L35.4597 21.6276L30.8443 23.9185V26.2094L35.4597 28.5003L46.443 22.9786V30.2038H46.5014Z" fill="#004785"/>
</g>
<g clip-path="url(#clip1_35_215)">
<path d="M23.8318 47.3077H26.5918L26.8774 45.9011H23.2925C22.5311 45.9011 21.8966 46.5404 21.8966 47.3077V50.9201C21.8966 51.6873 22.5311 52.3267 23.2925 52.3267H26.8774L26.5918 50.9201H23.8318C23.6732 50.9201 23.5463 50.7922 23.5463 50.6323V47.5634C23.5463 47.4036 23.6732 47.2757 23.8318 47.2757V47.3077ZM46.8004 50.952C46.6418 50.952 46.5149 50.8242 46.5149 50.6643V47.5954C46.5149 47.4355 46.6418 47.3077 46.8004 47.3077H49.5604L49.8459 45.9011H46.2611C45.4997 45.9011 44.8652 46.5404 44.8652 47.3077V50.9201C44.8652 51.6873 45.4997 52.3267 46.2611 52.3267H49.8459L49.5604 50.9201H46.8004V50.952ZM39.0596 45.933H36.8389V43.1199H35.1892V52.3267H39.0596C39.821 52.3267 40.4555 51.6873 40.4555 50.9201V47.3077C40.4555 46.5404 39.821 45.9011 39.0596 45.9011V45.933ZM38.7741 50.6643C38.7741 50.8242 38.6472 50.952 38.4886 50.952H36.8389V47.3396H38.4886C38.6472 47.3396 38.7741 47.4675 38.7741 47.6273V50.6963V50.6643ZM32.1119 50.6643C32.1119 50.8242 31.985 50.952 31.8264 50.952H30.1767C30.0181 50.952 29.8912 50.8242 29.8912 50.6643V45.933H28.2415V50.952C28.2415 51.7193 28.876 52.3586 29.6374 52.3586H32.3974C33.1588 52.3586 33.7933 51.7193 33.7933 50.952V45.933H32.1436V50.6643H32.1119ZM41.8196 45.933H43.4693V52.3586H41.8196V45.933ZM11.142 41.4575L3.52808 45.2937V52.966L11.142 56.8022L18.7559 52.966V45.2937L11.142 41.4575ZM17.1062 51.943L11.142 54.948L5.17775 51.943V46.3167L11.142 43.3436L16.8841 46.2527L12.982 48.2028L11.1102 47.2757L8.60401 48.5225V49.7692L11.1102 51.016L17.0745 48.011V51.943H17.1062Z" fill="#004785"/>
</g>
<defs>
<clipPath id="clip0_35_215">
<rect width="28.0426" height="28.1958" fill="white" transform="translate(21.4968 10.9366)"/>
</clipPath>
<clipPath id="clip1_35_215">
<rect width="29.0061" height="10.9367" fill="white" transform="translate(21.4968 42.5316)"/>
</clipPath>
</defs>
</svg>
